name C:/MyDriveSym/Projects/mobilecap/Data\Session20210816_0002\mocap\ForceDataProcessed\walking3_forces.mot
datacolumns 19
datarows 17
range 0.00000000 0.00800000
endheader 
time	R_ground_force_vx	R_ground_force_vy	R_ground_force_vz	R_ground_force_px	R_ground_force_py	R_ground_force_pz	R_ground_torque_x	R_ground_torque_y	R_ground_torque_z	L_ground_force_vx	L_ground_force_vy	L_ground_force_vz	L_ground_force_px	L_ground_force_py	L_ground_force_pz	L_ground_torque_x	L_ground_torque_y	L_ground_torque_z	
          0.00000000	         -5.92365900	        105.90159300	          7.10312200	          0.08960700	          0.00600000	         -0.25352400	          0.00000000	          0.19395100	          0.00000000	          0.00000000	          0.00000000	          0.00000000	          0.70832400	          0.00000000	         -0.28213800	          0.00000000	          0.00000000	          0.00000000	
          0.00050000	         -6.12978100	        107.49563000	          7.13634200	          0.08960700	          0.00600000	         -0.25352400	          0.00000000	          0.19163100	          0.00000000	          0.00000000	          0.00000000	          0.00000000	          0.70832400	          0.00000000	         -0.28213800	          0.00000000	          0.00000000	          0.00000000	
          0.00100000	         -6.33859700	        109.10131600	          7.16916700	          0.08960700	          0.00600000	         -0.25352400	          0.00000000	          0.18932500	          0.00000000	          0.00000000	          0.00000000	          0.00000000	          0.70832400	          0.00000000	         -0.28213800	          0.00000000	          0.00000000	          0.00000000	
          0.00150000	         -6.55012400	        110.71860400	          7.20158400	          0.08960700	          0.00600000	         -0.25352400	          0.00000000	          0.18703200	          0.00000000	          0.00000000	          0.00000000	          0.00000000	          0.70832400	          0.00000000	         -0.28213800	          0.00000000	          0.00000000	          0.00000000	
          0.00200000	         -6.76437600	        112.34744300	          7.23358000	          0.08984700	          0.00600000	         -0.25348000	          0.00000000	          0.18475200	          0.00000000	          0.00000000	          0.00000000	          0.00000000	          0.70832400	          0.00000000	         -0.28213800	          0.00000000	          0.00000000	          0.00000000	
          0.00250000	         -6.98136700	        113.98778100	          7.26514400	          0.09008500	          0.00600000	         -0.25343600	          0.00000000	          0.18248700	          0.00000000	          0.00000000	          0.00000000	          0.00000000	          0.70832400	          0.00000000	         -0.28213800	          0.00000000	          0.00000000	          0.00000000	
          0.00300000	         -7.20111300	        115.63956300	          7.29626200	          0.09032100	          0.00600000	         -0.25339200	          0.00000000	          0.18023600	          0.00000000	          0.00000000	          0.00000000	          0.00000000	          0.70832400	          0.00000000	         -0.28213800	          0.00000000	          0.00000000	          0.00000000	
          0.00350000	         -7.42362700	        117.30272900	          7.32692100	          0.09055500	          0.00600000	         -0.25334900	          0.00000000	          0.17800000	          0.00000000	          0.00000000	          0.00000000	          0.00000000	          0.70832400	          0.00000000	         -0.28213800	          0.00000000	          0.00000000	          0.00000000	
          0.00400000	         -7.64892400	        118.97722000	          7.35710900	          0.09078700	          0.00600000	         -0.25330500	          0.00000000	          0.17578000	          0.00000000	          0.00000000	          0.00000000	          0.00000000	          0.70832400	          0.00000000	         -0.28213800	          0.00000000	          0.00000000	          0.00000000	
          0.00450000	         -7.87701800	        120.66297000	          7.38681100	          0.09101800	          0.00600000	         -0.25326200	          0.00000000	          0.17357400	          0.00000000	          0.00000000	          0.00000000	          0.00000000	          0.70832400	          0.00000000	         -0.28213800	          0.00000000	          0.00000000	          0.00000000	
          0.00500000	         -8.10792300	        122.35991300	          7.41601400	          0.09124600	          0.00600000	         -0.25321900	          0.00000000	          0.17138500	          0.00000000	          0.00000000	          0.00000000	          0.00000000	          0.70832400	          0.00000000	         -0.28213800	          0.00000000	          0.00000000	          0.00000000	
          0.00550000	         -8.34165100	        124.06797800	          7.44470500	          0.09147300	          0.00600000	         -0.25317600	          0.00000000	          0.16921200	          0.00000000	          0.00000000	          0.00000000	          0.00000000	          0.70832400	          0.00000000	         -0.28213800	          0.00000000	          0.00000000	          0.00000000	
          0.00600000	         -8.57821700	        125.78709100	          7.47287000	          0.09169800	          0.00600000	         -0.25313400	          0.00000000	          0.16705600	          0.00000000	          0.00000000	          0.00000000	          0.00000000	          0.70832400	          0.00000000	         -0.28213800	          0.00000000	          0.00000000	          0.00000000	
          0.00650000	         -8.81763400	        127.51717600	          7.50049400	          0.09192200	          0.00600000	         -0.25309100	          0.00000000	          0.16491700	          0.00000000	          0.00000000	          0.00000000	          0.00000000	          0.70832400	          0.00000000	         -0.28213800	          0.00000000	          0.00000000	          0.00000000	
          0.00700000	         -9.05991500	        129.25815400	          7.52756300	          0.09214400	          0.00600000	         -0.25304900	          0.00000000	          0.16279500	          0.00000000	          0.00000000	          0.00000000	          0.00000000	          0.70832400	          0.00000000	         -0.28213800	          0.00000000	          0.00000000	          0.00000000	
          0.00750000	         -9.30507300	        131.00994100	          7.55406300	          0.09236400	          0.00600000	         -0.25300700	          0.00000000	          0.16069200	          0.00000000	          0.00000000	          0.00000000	          0.00000000	          0.70832400	          0.00000000	         -0.28213800	          0.00000000	          0.00000000	          0.00000000	
          0.00800000	         -9.55311900	        132.77245200	          7.57998000	          0.09258300	          0.00600000	         -0.25296500	          0.00000000	          0.15860600	          0.00000000	          0.00000000	          0.00000000	          0.00000000	          0.70832400	          0.00000000	         -0.28213800	          0.00000000	          0.00000000	          0.00000000	
